<?xml version="1.0" encoding="utf-8"?>
<!-- Generator: Adobe Illustrator 22.1.0, SVG Export Plug-In . SVG Version: 6.00 Build 0)  -->
<svg version="1.1" id="Layer_1" xmlns="http://www.w3.org/2000/svg" xmlns:xlink="http://www.w3.org/1999/xlink" x="0px" y="0px"
	 viewBox="0 0 300 300" style="enable-background:new 0 0 300 300;" xml:space="preserve">
<style type="text/css">
	.st0{fill:#92E2F4;}
	.st1{fill:none;stroke:#000000;stroke-width:4;stroke-miterlimit:10;}
</style>
<g id="XMLID_1_">
	<g>
		<path class="st0" d="M285.9,272c0.1,2.9-0.1,5.9-1.4,8.4c-3.3,6.2-11.8,6.8-18.8,6.6c-12-0.4-24.1-0.9-36.1-1.3
			c-17.4-0.6-34.7-1-52.1-1.1c-26.7-0.3-53.3,0-80,0.7c-9.1,0.2-18.2,0.5-27.3,0.8c-16.4,0.5-32.9,1-49.3-0.6
			c-1.1-0.1-2.3-0.2-3.2-0.8c-1.1-0.7-1.7-2-2.2-3.2c-6.2-15.4-1.2-32.7-0.2-49.3c0.7-11.8-0.6-23.7,0.1-35.6
			c0.7-11,3.2-21.9,3.7-33c0.5-10.7-1-21.4-2.2-32c-1.1-10-1.8-20-2.6-30c-2.1-29.1-4.1-58.5,0.1-87.3l1.2-0.2
			c54.1,6.9,109.1-1.2,163.6,2.2c18.9,1.2,38.1,3.7,56.8,0.6c13-2.2,27.6-6.7,38.3,0.9c10.7,7.5,11.4,22.9,11.1,36
			c-0.7,26.7-1.4,53.4-2.1,80c-0.3,11.5-0.6,23,0.5,34.5c0.9,8.9,2.6,17.8,1.5,26.7c-0.9,7.6-3.9,14.8-5.1,22.4
			C277.6,235.3,285.4,253.5,285.9,272z"/>
	</g>
	<g>
		<path class="st1" d="M15.7,13.8c54.1,6.9,109.1-1.2,163.6,2.2c18.9,1.2,38.1,3.7,56.8,0.6c13-2.2,27.6-6.7,38.3,0.9
			c10.7,7.5,11.4,22.9,11.1,36c-0.7,26.7-1.4,53.4-2.1,80c-0.3,11.5-0.6,23,0.5,34.5c0.9,8.9,2.6,17.8,1.5,26.7
			c-0.9,7.6-3.9,14.8-5.1,22.4c-2.8,18.2,5,36.4,5.4,54.9c0.1,2.9-0.1,5.9-1.4,8.4c-3.3,6.2-11.8,6.8-18.8,6.6
			c-12-0.4-24.1-0.9-36.1-1.3c-17.4-0.6-34.7-1-52.1-1.1c-26.7-0.3-53.3,0-80,0.7c-9.1,0.2-18.2,0.5-27.3,0.8
			c-16.4,0.5-32.9,1-49.3-0.6c-1.1-0.1-2.3-0.2-3.2-0.8c-1.1-0.7-1.7-2-2.2-3.2c-6.2-15.4-1.2-32.7-0.2-49.3
			c0.7-11.8-0.6-23.7,0.1-35.6c0.7-11,3.2-21.9,3.7-33c0.5-10.7-1-21.4-2.2-32c-1.1-10-1.8-20-2.6-30c-2.1-29.1-4.1-58.5,0.1-87.3"
			/>
	</g>
</g>
<g>
	<g>
		<path d="M37.9,32.5c-2.2,1.5-2.9,4.2-1.7,6.7c1.6,3.5,5.8,4.1,9.2,4.7c2.7,0.5,8.4,2.9,10.3,0c1.7-2.5,0.6-6.7-0.8-9
			c-1.7-2.7-4.6-4.4-7.8-4.7c-3-0.2-6.7,0.6-6.4,4.3c0.2,2.9,2.4,6.6,5.3,7.6c0.9,0.3,1.7,0.3,2.5-0.2c1-0.7,0.7-2.4,1.4-3
			c1.5-1.1,0-3.8-1.5-2.6c-0.6,0.5-1.1,0.9-1.4,1.7c-0.1,0.2-0.1,1.1-0.3,1.2c0.4-0.3-0.9-0.9-1.4-1.4c-1.4-1.7-2.1-4.6,0.9-4.6
			c2.1,0,4.2,0.9,5.5,2.4c1.1,1.3,2.3,3.9,1.7,5.6c-0.4,1.2-1.2,0.8-2.5,0.7c-0.8-0.1-1.6-0.3-2.3-0.4c-1.8-0.3-3.7-0.5-5.5-1
			c-1.6-0.4-7-3-3.7-5.3C41,34,39.5,31.4,37.9,32.5L37.9,32.5z"/>
	</g>
</g>
<g>
	<g>
		<path d="M100.8,30.9c-3.3,0.8-6.8,1.7-9,4.5c-1.6,2-2.4,4.9-1.3,7.3c2.2,5.1,10.8,4.7,13.5,0.3c1.8-2.8,0.5-6.2-1.5-8.5
			c-1.7-2-3.7-3.9-5.7-1.3c-1.5,1.8-4.2,5.9-2.9,8.3c1.5,2.8,4.8,1.1,6.3-0.6c1.2-1.5-0.9-3.6-2.1-2.1c-0.1,0.2-1.1,1.4-1.4,1.2
			c-0.1-0.1,1-2.2,1.1-2.4c0.3-0.6,0.7-1.2,1-1.7c0.5-0.8-0.2-0.9,0.6-0.2c1.4,1.1,3,3.5,2.4,5.4c-0.5,1.7-2.7,2.4-4.3,2.5
			c-3.3,0.3-5.6-2.2-3.8-5.3c1.6-2.8,5.1-3.5,8-4.2C103.5,33.3,102.7,30.4,100.8,30.9L100.8,30.9z"/>
	</g>
</g>
<g>
	<g>
		<path d="M37.5,83.5c5.4,16.7,22.4,25.2,39.1,25.3c11.8,0.1,43.1-4.2,37.7-22.7c-0.2-0.8-1-1.2-1.8-1c-3.5,0.6-6.6,2-9.7,3.6
			c-4.8,2.3-9,3.6-14.3,4c-8.3,0.7-16.7,0.4-24.9,0.5c-4.7,0-9.3,0.3-11.9-4.4c-1.5-2.6-1.8-5.6-4-7.8c-2.8-2.8-7.2-2.7-9.4,0.7
			c-1,1.6,1.6,3.1,2.6,1.5c3-4.8,6.3,2.6,7,4.1c0.5,1.2,0.9,2.4,1.6,3.6c1,1.8,2.2,3.1,4,4.1c5.2,2.6,13.1,1.2,18.6,1.1
			c6.8-0.1,13.7,0.2,20.5-0.8c7.5-1.1,13.5-6,20.9-7.3c-0.6-0.3-1.2-0.7-1.8-1c4.9,16.7-28.6,19.5-38.5,18.8c-14.1-1-28-9-32.5-22.9
			C39.8,80.9,36.9,81.7,37.5,83.5L37.5,83.5z"/>
	</g>
</g>
<g>
	<g>
		<path d="M107.3,124.7c-1.6,3.9-0.7,8.4,2.3,11.3c0.5,0.5,1.6,0.6,2.1,0c2.6-3.3,7.3-6.3,6.2-11.2c-0.7-3.2-4.5-5-7.1-2.7
			c-1.4,1.3,0.7,3.4,2.1,2.1c1.3-1.2,2.2,1.3,2.2,2.1c-0.1,1.2-0.8,2.3-1.5,3.3c-1.2,1.5-2.7,2.8-4,4.3c0.7,0,1.4,0,2.1,0
			c-2.3-2.3-2.7-5.5-1.5-8.4C110.9,123.7,108,122.9,107.3,124.7L107.3,124.7z"/>
	</g>
</g>
<g>
	<g>
		<path d="M161.2,122.5c-4.2-1.2-6.7,3.4-6,7c0.6,3.2,4,9.7,8.1,8.7c4.1-1,5.5-8.1,6.3-11.5c0.9-4.3-2.8-5.6-6.3-4.5
			c-1.8,0.5-1.1,3.4,0.8,2.9c2.7-0.8,2.7,0.8,2.1,3c-0.5,1.6-1,4.4-2.1,5.7c-0.8,0.9-2,1.5-3,0.6c-0.6-0.6-1.2-1.6-1.6-2.4
			c-0.5-0.9-1.1-1.8-1.3-2.8c-0.3-1.3,0.1-4.4,2.3-3.7C162.3,125.9,163.1,123,161.2,122.5L161.2,122.5z"/>
	</g>
</g>
<g>
	<g>
		<path d="M107.9,181.5c12.7,0.8,25.3,0.1,37.8-2c6-1,12-2.5,18-3.3c3.4-0.5,7-0.9,10.5-0.8c3.2,0.1,6.6-0.2,5.8,5.3
			c-0.2,1.4-1.3,3.1-2,4.3c-3.9,6.6-12.5,6-19.2,6.8c-6.7,0.7-13.5,1.3-20.3,1.6c-6.4,0.2-12.9,0.2-19.3-0.4
			c-3.9-0.4-8.3-0.4-11.6-2.7c-2.3-1.6-2.7-3.1-2.9-6c-0.1-0.9-0.2-5.7,1.2-5.2c1.8,0.6,2.6-2.3,0.8-2.9c-3.6-1.2-4.8,3-5,5.8
			c-0.2,4.6,0.7,9.6,5.2,11.7c5.3,2.6,13.2,2.4,19,2.6c8,0.3,16.1-0.1,24.1-0.8c7.1-0.6,14.7-0.8,21.6-2.5c5.5-1.3,8.4-5,10.5-10
			c5.5-13.5-12.3-11-20.2-9.8c-9,1.4-17.9,3.6-27,4.5c-9,1-18.1,1.1-27.2,0.5C106,178.4,106,181.4,107.9,181.5L107.9,181.5z"/>
	</g>
</g>
<g>
	<g>
		<path d="M195,198.3c-3.6,0.3-6.5,3.8-4.7,7.4c1.7,3.6,9.1,8.6,13,8.4c2.1-0.1,3.1-1.4,4.4-3c1.6-2,4.5-5.2,4.7-8
			c0.1-1.4-0.7-2.4-2-3c-3.5-1.5-7.8,1.3-10.7-2.5c-1.1-1.5-3.7,0-2.6,1.5c1.2,1.6,2.4,2.6,4.3,3.2c0.9,0.3,1.9,0.4,2.8,0.5
			c1.4,0.1,3.7-0.6,4.2,0.7c0.5,1.3-1.2,3-1.9,4c-1.5,2.2-2.2,3.8-5.6,2.8c-1.1-0.3-2.3-1.2-3.3-1.9c-1-0.6-1.9-1.3-2.7-2.1
			c-1.8-1.1-1.8-2.8,0-5.1C196.9,201.2,196.9,198.2,195,198.3L195,198.3z"/>
	</g>
</g>
<g>
	<g>
		<path d="M248.7,199.8c-3.8-1-8.7-0.3-9.3,4.4c-0.5,4.1,2.7,8.7,6.7,9.7c3.7,1,7.9-0.9,9.5-4.4c1.7-3.7,0-8.1-3.3-10.2
			c-1.6-1.1-3.1,1.5-1.5,2.6c4.4,2.8,2.3,9.7-3,9.3c-2.5-0.2-4.6-2.6-5.2-4.9c-1-3.8,2.6-4.3,5.4-3.6
			C249.7,203.1,250.5,200.3,248.7,199.8L248.7,199.8z"/>
	</g>
</g>
<g>
	<g>
		<path d="M196.7,268.2c0-9,3.5-17.7,9.9-24.1c7.4-7.4,17.7-10,27.8-10.4c8.8-0.4,19.2,1,25.5,7.9c2.9,3.3,4.8,7.8,4.7,12.2
			c-0.1,4.9-6.2,16.1-11.8,8.8c-1.9-2.5-2.4-5.9-4-8.6c-1.8-2.9-4.5-5.2-7.4-7c-5.4-3.4-12.6-5.6-18.8-2.9
			c-5.3,2.3-7.6,7.5-9.4,12.6c-2.7,7.7-7.3,19.5-17.8,12.7c-1.6-1.1-3.1,1.5-1.5,2.6c5.1,3.3,11.7,3,16-1.5
			c4.5-4.7,5.1-11.5,7.8-17.1c4.7-9.8,15.6-8.5,23.3-2.9c4,2.9,5.6,6.3,7.5,10.6c1.1,2.5,2.4,4.9,5,6.1c5.3,2.4,10.5-2.1,12.6-6.7
			c2.5-5.5,1.4-12.3-1.6-17.4c-8-13.6-27.4-13.9-41.1-11c-17.3,3.7-29.8,18.4-29.8,36.2C193.6,270.2,196.6,270.2,196.7,268.2
			L196.7,268.2z"/>
	</g>
</g>
</svg>
